<?xml version="1.0" standalone="no"?>
<!DOCTYPE svg PUBLIC "-//W3C//DTD SVG 20010904//EN"
 "http://www.w3.org/TR/2001/REC-SVG-20010904/DTD/svg10.dtd">
<svg version="1.0" xmlns="http://www.w3.org/2000/svg"
 width="8783.000000pt" height="2523.000000pt" viewBox="0 0 8783.000000 2523.000000"
 preserveAspectRatio="xMidYMid meet">

<g transform="translate(0.000000,2523.000000) scale(0.100000,-0.100000)"
fill="#000000" stroke="none">
<path d="M4630 25220 c-1160 -79 -2027 -427 -2676 -1075 -470 -469 -791 -1057
-974 -1785 -198 -788 -234 -1769 -95 -2602 144 -864 490 -1641 1084 -2432 492
-655 1048 -1227 2021 -2081 472 -415 703 -632 1019 -960 684 -711 1060 -1325
1230 -2010 129 -521 146 -1207 42 -1684 -129 -586 -466 -938 -996 -1040 -383
-74 -821 -35 -1121 100 -102 45 -229 134 -315 219 -218 216 -344 511 -405 950
-15 107 -18 232 -22 878 l-4 752 -1334 0 -1334 0 0 -612 c0 -337 5 -698 10
-803 61 -1151 354 -2047 890 -2726 106 -134 375 -403 509 -508 583 -461 1284
-714 2226 -803 186 -17 861 -17 1050 0 1115 103 1939 447 2565 1072 659 657
1029 1546 1147 2755 22 230 25 1063 5 1305 -92 1082 -383 1920 -960 2770 -486
715 -1103 1372 -2172 2310 -610 535 -903 816 -1243 1190 -398 438 -651 797
-842 1193 -146 305 -232 591 -282 947 -26 181 -25 733 0 905 49 328 133 565
268 760 68 99 215 237 318 299 145 88 341 151 541 176 110 13 411 13 520 0
546 -68 897 -370 1050 -905 84 -293 100 -480 100 -1187 l0 -558 1336 0 1336 0
-5 618 c-5 657 -11 779 -63 1152 -103 745 -327 1380 -667 1890 -113 170 -223
304 -377 463 -594 611 -1381 952 -2430 1052 -193 19 -764 28 -950 15z"/>
<path d="M10367 24973 c-4 -3 -7 -3997 -7 -8875 l0 -8868 1235 0 1235 0 0
6720 0 6720 24 0 c21 0 25 -6 34 -57 5 -32 468 -3056 1028 -6720 l1018 -6663
1183 0 c792 0 1183 3 1183 10 0 8 2009 13155 2047 13393 5 31 10 37 29 37 l24
0 0 -6720 0 -6720 1335 0 1335 0 0 8875 0 8875 -2014 0 -2014 0 -9 -67 c-6
-38 -410 -2895 -899 -6350 l-889 -6283 -27 0 c-16 0 -28 3 -28 8 0 15 -1791
12668 -1795 12680 -4 9 -415 12 -2013 12 -1105 0 -2012 -3 -2015 -7z"/>
<path d="M25935 24968 c-6 -16 -2925 -17705 -2925 -17724 0 -20 2608 -21 2615
-1 3 6 117 777 255 1712 138 935 253 1710 255 1723 l5 22 1604 0 c1069 0 1605
3 1608 10 3 9 509 -3451 508 -3472 0 -5 637 -8 1415 -8 l1415 0 -6 28 c-2 15
-659 3996 -1459 8847 -801 4851 -1458 8832 -1461 8848 l-6 27 -1909 0 c-1519
0 -1911 -3 -1914 -12z m1825 -3096 c0 -4 281 -1967 625 -4362 344 -2395 625
-4365 625 -4378 l0 -22 -1267 2 c-838 2 -1268 6 -1267 13 1 6 278 1978 615
4382 l614 4373 28 0 c15 0 27 -3 27 -8z"/>
<path d="M33620 16105 l0 -8875 1413 2 1412 3 3 3803 2 3802 513 0 c694 0 909
-15 1165 -81 387 -99 651 -307 819 -644 110 -218 173 -464 220 -849 14 -114
17 -408 23 -2321 5 -1420 11 -2257 19 -2380 34 -578 73 -819 192 -1183 l50
-152 1435 0 c979 0 1434 3 1434 10 0 6 -7 27 -16 48 -135 317 -223 723 -265
1227 -8 98 -14 796 -20 2340 -5 1210 -11 2227 -14 2260 -3 33 -12 143 -21 245
-119 1424 -578 2303 -1427 2731 -112 57 -159 77 -307 129 -93 33 -105 41 -108
63 -2 19 2 27 20 32 13 4 78 34 145 66 615 290 1063 761 1338 1404 165 387
267 827 326 1415 17 164 24 1883 9 2140 -64 1118 -355 1938 -896 2532 -567
621 -1428 980 -2584 1078 -306 25 -691 30 -2732 30 l-2148 0 0 -8875z m4345
6325 c198 -22 358 -66 498 -136 117 -58 166 -93 264 -187 261 -251 399 -643
433 -1232 13 -229 13 -1669 -1 -1870 -30 -463 -123 -787 -302 -1055 -63 -94
-220 -251 -312 -312 -188 -124 -386 -195 -670 -240 -119 -19 -184 -21 -777
-25 l-648 -5 0 2536 0 2536 713 0 c410 0 750 -4 802 -10z"/>
<path d="M42745 24968 c-3 -7 -4 -578 -3 -1268 l3 -1255 1478 -3 1477 -2 0
-7605 0 -7605 1410 0 1410 0 0 7605 0 7605 1480 0 1480 0 -2 1268 -3 1267
-4363 3 c-3485 2 -4364 0 -4367 -10z"/>
<path d="M53340 22753 c0 -1293 -4 -2320 -10 -2447 -20 -445 -76 -766 -193
-1111 -84 -248 -167 -427 -372 -805 -366 -676 -487 -986 -570 -1461 -49 -287
-59 -426 -59 -824 0 -460 23 -689 104 -1023 86 -356 198 -622 480 -1142 241
-444 333 -643 422 -914 115 -348 169 -669 188 -1118 5 -126 10 -1190 10 -2450
l0 -2228 1749 0 c1749 0 1878 2 2111 36 379 55 837 210 1195 405 481 261 898
646 1199 1106 218 334 378 722 456 1113 60 296 62 334 67 1090 7 1072 -16
1395 -132 1835 -92 351 -204 609 -493 1140 -348 638 -475 995 -546 1541 -54
406 -45 950 23 1367 26 157 105 502 181 782 160 596 200 813 200 1072 -1 257
-57 460 -180 652 -52 80 -53 84 -34 98 174 126 418 402 578 653 122 192 261
516 321 750 98 379 110 877 34 1325 -174 1025 -838 1927 -1764 2397 -377 191
-741 301 -1205 366 -101 14 -339 16 -1937 19 l-1823 4 0 -2228z m3506 -13
c509 -45 918 -428 999 -936 9 -54 20 -103 26 -109 12 -12 12 -51 -1 -75 -6
-10 -15 -53 -21 -96 -16 -119 -54 -239 -113 -359 -148 -300 -419 -506 -753
-574 -96 -20 -135 -21 -732 -21 l-631 0 0 1090 0 1090 558 0 c306 0 607 -5
668 -10z m-680 -4440 c493 -39 743 -185 770 -451 9 -92 -7 -174 -76 -384 -160
-486 -220 -916 -207 -1480 11 -486 69 -837 199 -1214 87 -252 169 -427 383
-821 341 -627 465 -942 549 -1400 63 -345 79 -661 74 -1530 l-4 -635 -26 -97
c-121 -444 -497 -765 -958 -818 -47 -5 -352 -10 -677 -10 l-593 0 0 1128 c0
1382 -9 1592 -76 1962 -82 452 -205 765 -544 1390 -227 419 -321 622 -404 877
-122 374 -173 702 -183 1178 -14 676 76 1200 297 1725 51 121 190 407 257 528
l35 62 527 0 c291 0 586 -5 657 -10z"/>
<path d="M63005 24968 c-3 -7 -6 -1106 -8 -2443 -3 -2218 -5 -2441 -20 -2555
-85 -628 -193 -934 -584 -1655 -221 -407 -310 -599 -396 -855 -149 -441 -204
-857 -194 -1452 8 -504 57 -819 187 -1208 86 -258 171 -442 401 -865 388 -715
503 -1044 586 -1681 15 -117 17 -349 20 -2576 l4 -2448 1130 0 1130 0 -4 2448
c-3 2228 -5 2459 -20 2576 -52 397 -120 671 -244 986 -67 170 -152 343 -317
648 -334 617 -454 913 -536 1322 -65 323 -84 577 -77 1005 7 378 29 585 93
878 71 326 162 572 362 980 l126 257 578 0 c607 0 699 -5 879 -45 300 -66 453
-186 495 -386 23 -108 8 -204 -65 -425 -96 -289 -148 -524 -188 -844 -26 -210
-26 -849 0 -1065 74 -605 194 -945 595 -1680 358 -656 480 -1014 559 -1635 16
-123 18 -346 23 -2575 l5 -2440 1128 -3 1127 -2 0 2362 c0 1566 -4 2409 -11
2502 -13 178 -52 448 -84 591 -89 394 -203 674 -487 1202 -263 486 -344 661
-431 923 -79 237 -126 455 -164 760 -22 183 -26 815 -5 1005 32 295 98 618
222 1080 86 322 126 484 154 630 90 470 44 818 -145 1097 -22 32 -39 62 -39
67 0 5 17 21 38 37 20 15 88 77 151 138 450 439 724 1001 791 1621 20 180 8
705 -19 880 -139 897 -608 1670 -1332 2197 -451 329 -1026 551 -1639 635 -113
15 -304 17 -1948 20 -1482 3 -1823 1 -1827 -9z m3651 -2245 c110 -25 234 -74
336 -132 270 -154 476 -463 519 -776 7 -49 18 -97 26 -106 17 -20 17 -49 -1
-96 -8 -21 -19 -76 -26 -123 -6 -47 -24 -124 -40 -172 -106 -319 -334 -559
-645 -679 -193 -75 -348 -86 -1067 -74 l-468 7 0 1090 0 1090 638 -5 c596 -4
643 -5 728 -24z"/>
<path d="M72237 22553 c-3 -2196 -5 -2441 -20 -2563 -75 -604 -196 -955 -554
-1615 -300 -551 -417 -825 -507 -1180 -170 -676 -160 -1601 25 -2245 91 -318
183 -528 441 -1003 400 -738 514 -1067 595 -1719 15 -120 17 -378 20 -2565 l4
-2433 3389 0 3390 0 0 1115 0 1115 -2260 0 -2259 0 -4 1313 c-4 1426 -3 1401
-62 1745 -83 477 -199 775 -573 1467 -284 525 -408 839 -487 1235 -102 514
-106 1218 -9 1755 35 198 68 326 129 510 78 236 176 453 337 753 l50 92 1128
0 c890 0 1130 3 1138 13 22 26 242 469 290 583 186 446 274 876 297 1457 l6
157 -1120 0 -1121 0 0 1105 0 1105 2260 0 2260 0 0 1115 0 1115 -3390 0 -3389
0 -4 -2427z"/>
<path d="M81050 22663 c0 -2566 0 -2571 -66 -2953 -80 -466 -201 -779 -554
-1430 -249 -459 -335 -655 -434 -981 -203 -673 -204 -1701 -2 -2394 94 -324
193 -549 441 -1005 398 -732 516 -1071 592 -1700 16 -133 17 -339 20 -2558 l4
-2412 1103 0 1104 0 587 1160 c323 638 590 1160 594 1160 5 0 277 -521 607
-1157 l599 -1158 1093 -3 1092 -2 0 2313 c0 2580 -1 2604 -71 2982 -82 442
-204 750 -552 1390 -266 489 -387 783 -473 1145 -150 631 -147 1492 7 2104 89
354 195 607 452 1083 188 348 294 560 354 707 158 385 242 763 272 1231 7 104
11 966 11 2477 l0 2318 -1130 0 -1129 0 -4 -2422 c-3 -2182 -5 -2436 -20
-2558 -34 -278 -65 -441 -122 -645 -91 -325 -191 -552 -475 -1075 -153 -282
-200 -375 -273 -540 -61 -139 -141 -366 -180 -510 -172 -633 -178 -1544 -16
-2194 90 -363 209 -644 489 -1161 350 -646 476 -992 549 -1518 21 -148 25
-197 14 -167 -3 8 -18 33 -33 55 -15 22 -58 96 -96 165 -38 69 -112 184 -165
255 -53 72 -115 162 -138 200 -65 107 -152 224 -195 264 -22 20 -110 108 -195
195 -172 176 -366 342 -481 413 -41 26 -190 122 -330 214 -217 142 -604 376
-652 394 -17 7 -20 32 83 -560 42 -242 53 -335 60 -480 5 -99 12 -227 15 -285
10 -151 -30 -509 -72 -643 -13 -43 -24 -88 -24 -100 0 -12 -7 -31 -15 -41 -8
-11 -15 -15 -15 -8 0 92 -81 497 -135 672 -97 316 -179 496 -463 1025 -275
512 -391 797 -476 1170 -148 652 -135 1522 31 2135 39 144 119 371 180 510 73
165 120 258 273 540 233 430 333 642 415 880 84 247 144 523 182 840 16 133
17 345 20 2563 l4 2417 -1131 0 -1130 0 0 -2317z"/>
<path d="M59149 3900 c-232 -27 -414 -132 -496 -286 -57 -106 -64 -158 -70
-486 l-6 -298 -183 0 -184 0 0 -190 0 -190 185 0 185 0 0 -1180 0 -1180 235 0
235 0 0 1180 0 1180 230 0 230 0 0 190 0 190 -230 0 -230 0 0 215 c0 242 8
298 53 357 56 72 89 83 260 83 l147 0 0 206 0 206 -107 6 c-122 8 -162 7 -254
-3z"/>
<path d="M60600 3899 c-226 -27 -406 -133 -487 -285 -57 -107 -64 -157 -70
-486 l-5 -298 -184 0 -184 0 0 -190 0 -190 185 0 185 0 0 -1180 0 -1180 235 0
235 0 0 1180 0 1180 230 0 230 0 0 190 0 190 -230 0 -230 0 0 223 c0 267 8
309 75 373 57 56 112 68 266 62 l119 -5 0 203 c0 111 -3 205 -8 208 -16 10
-291 14 -362 5z"/>
<path d="M711 1977 c-387 -1029 -703 -1876 -702 -1882 1 -6 94 -10 258 -10
l258 0 196 545 195 545 759 0 758 0 178 -525 c98 -289 183 -535 189 -548 l10
-22 272 2 c237 3 273 5 270 18 -2 8 -308 855 -679 1883 l-676 1867 -291 0
-291 0 -704 -1873z m1258 488 c149 -445 271 -816 271 -822 0 -10 -123 -13
-581 -13 -549 0 -581 1 -577 18 4 13 541 1490 590 1621 5 14 12 20 17 15 4 -5
130 -373 280 -819z"/>
<path d="M8160 3590 l0 -260 230 0 230 0 0 260 0 260 -230 0 -230 0 0 -260z"/>
<path d="M50370 3145 c0 -388 -4 -705 -8 -705 -5 0 -26 26 -48 57 -53 78 -196
220 -269 268 -74 49 -213 102 -319 122 -122 23 -360 13 -487 -20 -232 -61
-413 -184 -565 -386 -72 -96 -158 -264 -198 -387 -122 -374 -102 -925 48
-1314 83 -213 175 -358 306 -483 220 -210 435 -292 765 -292 204 0 344 35 492
120 73 43 178 150 244 248 l59 88 0 -190 0 -191 220 0 220 0 0 1885 0 1885
-230 0 -230 0 0 -705z m-562 -671 c123 -27 250 -111 331 -219 55 -73 123 -215
155 -327 48 -165 61 -289 60 -568 0 -245 -1 -259 -27 -355 -104 -385 -358
-595 -720 -595 -192 0 -329 53 -453 175 -133 131 -215 314 -261 580 -23 133
-23 495 0 640 67 424 281 655 635 684 106 8 196 4 280 -15z"/>
<path d="M78450 1965 l0 -1885 230 0 230 0 0 779 c0 473 4 820 11 882 34 336
177 569 420 683 99 46 202 66 346 66 242 0 376 -64 456 -217 75 -144 71 -73
77 -1188 l5 -1000 230 0 230 0 0 1020 0 1020 -23 105 c-80 363 -307 583 -678
656 -127 25 -371 25 -479 0 -191 -44 -363 -161 -543 -371 l-51 -60 -1 698 0
697 -230 0 -230 0 0 -1885z"/>
<path d="M81380 3590 l0 -260 230 0 230 0 0 260 0 260 -230 0 -230 0 0 -260z"/>
<path d="M12340 3215 l0 -385 -190 0 -190 0 0 -190 0 -190 190 0 189 0 3 -997
c3 -989 4 -999 25 -1065 64 -201 159 -288 355 -325 89 -16 167 -15 391 7 l127
13 0 183 0 182 -147 4 c-134 3 -153 5 -198 28 -31 16 -57 38 -70 60 -20 34
-20 53 -23 973 l-2 937 220 0 220 0 0 190 0 190 -220 0 -220 0 0 385 0 385
-230 0 -230 0 0 -385z"/>
<path d="M24437 3594 c-4 -4 -7 -178 -7 -386 l0 -378 -185 0 -185 0 0 -190 0
-190 185 0 184 0 4 -977 c4 -1076 2 -1041 66 -1179 59 -126 160 -200 314 -229
99 -19 182 -18 372 3 l150 17 0 180 0 180 -145 6 c-190 8 -245 28 -274 100
-14 35 -16 144 -16 969 l0 930 220 0 220 0 0 190 0 190 -220 0 -220 0 -2 383
-3 382 -226 3 c-124 1 -228 -1 -232 -4z"/>
<path d="M44280 3215 l0 -385 -185 0 -185 0 0 -190 0 -190 185 0 184 0 3 -992
c4 -1100 0 -1033 70 -1177 96 -199 277 -254 691 -212 l137 14 0 182 0 183
-147 4 c-133 3 -153 6 -198 28 -32 16 -57 38 -70 60 -20 34 -20 53 -23 973
l-2 937 220 0 220 0 0 190 0 190 -220 0 -220 0 0 385 0 385 -230 0 -230 0 0
-385z"/>
<path d="M4880 2895 c-120 -23 -278 -88 -379 -158 -68 -46 -186 -163 -239
-234 l-47 -65 -3 196 -2 196 -220 0 -220 0 0 -1375 0 -1375 229 0 230 0 4 852
c3 818 4 857 24 943 67 295 234 497 480 581 64 22 101 28 205 32 330 12 500
-109 574 -408 18 -70 19 -142 24 -1035 l5 -960 230 0 230 0 0 1000 c0 1087 0
1091 -56 1260 -97 291 -317 477 -641 540 -117 23 -334 28 -428 10z"/>
<path d="M10425 2895 c-254 -47 -454 -179 -647 -425 l-27 -35 -1 198 0 197
-220 0 -220 0 2 -1372 3 -1373 230 0 230 0 5 870 5 870 27 97 c43 155 106 267
207 368 145 144 285 200 495 200 364 -1 523 -156 566 -552 6 -60 10 -436 10
-978 l0 -880 230 0 230 0 0 983 c0 654 -4 1012 -11 1072 -40 322 -192 548
-454 675 -172 84 -465 121 -660 85z"/>
<path d="M14693 2900 c-433 -49 -762 -277 -953 -660 -180 -360 -231 -926 -120
-1330 122 -440 422 -756 813 -859 135 -35 238 -44 447 -38 226 7 299 20 452
82 262 105 449 280 586 548 54 103 87 195 98 265 l7 42 -229 0 -229 0 -18 -66
c-42 -161 -172 -307 -355 -398 -110 -56 -203 -76 -348 -76 -410 0 -654 180
-749 553 -23 93 -50 321 -39 338 3 5 456 9 1006 9 l1001 0 -7 141 c-38 814
-354 1315 -900 1430 -104 22 -349 32 -463 19z m403 -449 c113 -39 184 -83 257
-162 80 -85 123 -158 163 -277 30 -90 64 -255 64 -309 l0 -23 -765 0 -764 0 5
53 c20 199 97 380 220 516 79 88 216 174 342 216 125 40 338 34 478 -14z"/>
<path d="M17795 2904 c-11 -2 -45 -9 -75 -15 -186 -37 -392 -198 -541 -422
l-64 -97 -3 230 -2 230 -220 0 -220 0 2 -1372 3 -1373 230 0 230 0 5 885 c5
826 7 889 24 940 67 201 198 359 361 436 103 49 174 64 338 71 l147 6 0 237 0
237 -37 7 c-40 6 -145 6 -178 0z"/>
<path d="M19605 2896 c-253 -50 -483 -198 -635 -410 l-35 -48 -3 196 -2 196
-220 0 -220 0 0 -1375 0 -1375 230 0 230 0 0 783 c0 448 5 822 10 877 28 265
117 457 271 587 134 113 277 163 464 163 184 0 303 -39 401 -131 61 -58 104
-141 136 -260 22 -84 22 -89 28 -1049 l5 -965 230 0 230 0 0 1020 0 1020 -23
105 c-79 361 -308 584 -673 655 -116 23 -335 28 -424 11z"/>
<path d="M22440 2903 c-526 -52 -897 -354 -1065 -868 -107 -327 -126 -778 -45
-1094 110 -433 382 -746 755 -870 156 -51 269 -64 504 -58 271 7 367 29 563
129 119 60 205 125 287 214 140 153 268 393 297 556 l6 38 -230 0 -230 0 -12
-52 c-50 -213 -278 -418 -527 -474 -96 -21 -335 -15 -433 11 -258 69 -422 241
-495 517 -23 88 -45 246 -45 323 l0 35 1005 0 1005 0 0 28 c-1 75 -22 339 -36
427 -50 339 -176 632 -358 832 -149 164 -372 272 -626 303 -79 9 -241 11 -320
3z m336 -438 c301 -87 472 -329 519 -732 l6 -53 -767 0 -766 0 7 68 c26 240
150 468 325 597 55 40 166 96 238 120 108 35 319 35 438 0z"/>
<path d="M28185 2899 c-492 -55 -863 -364 -1021 -853 -148 -458 -132 -984 41
-1363 74 -162 227 -353 366 -457 129 -97 313 -172 497 -202 118 -19 410 -14
512 10 449 104 742 452 825 984 l7 42 -223 -2 -223 -3 -22 -80 c-46 -174 -105
-284 -209 -389 -123 -124 -252 -176 -442 -176 -127 0 -226 20 -323 66 -91 43
-218 166 -267 260 -45 84 -99 251 -119 364 -25 146 -30 467 -10 613 56 397
227 646 516 749 81 29 300 37 404 14 231 -52 387 -216 449 -473 l22 -93 223 0
223 0 -6 48 c-29 218 -98 413 -193 547 -97 137 -187 217 -324 290 -188 99
-426 134 -703 104z"/>
<path d="M30840 2904 c-243 -31 -422 -101 -600 -235 -292 -220 -494 -645 -519
-1091 -25 -458 103 -874 361 -1178 236 -278 642 -425 1051 -381 444 48 771
283 968 695 252 529 211 1207 -103 1678 -171 256 -435 432 -738 493 -74 15
-352 27 -420 19z m364 -419 c357 -98 579 -486 580 -1015 1 -551 -221 -939
-594 -1037 -90 -23 -310 -24 -400 0 -152 40 -309 154 -402 290 -137 202 -218
574 -189 867 55 540 277 844 671 914 53 10 277 -3 334 -19z"/>
<path d="M33905 2896 c-252 -49 -484 -199 -637 -412 l-33 -46 -3 196 -2 196
-220 0 -220 0 2 -1372 3 -1373 227 -3 227 -2 4 842 c4 926 4 916 67 1090 88
240 258 400 488 459 52 13 109 19 187 19 306 0 466 -116 535 -387 34 -130 40
-314 40 -1186 l0 -837 228 2 227 3 3 950 c2 606 -1 990 -8 1061 -41 438 -278
709 -691 789 -116 23 -335 28 -424 11z"/>
<path d="M36825 2896 c-253 -50 -483 -198 -635 -410 l-35 -48 -3 196 -2 196
-220 0 -220 0 0 -1375 0 -1375 230 0 230 0 0 783 c0 448 5 822 10 877 28 265
117 457 271 587 134 113 277 163 464 163 184 0 303 -39 400 -131 61 -57 106
-143 137 -262 22 -81 22 -94 28 -1047 l5 -965 230 0 230 0 0 1015 c0 1111 2
1079 -60 1260 -95 279 -318 463 -636 525 -116 23 -335 28 -424 11z"/>
<path d="M39660 2903 c-711 -70 -1132 -595 -1157 -1443 -8 -268 17 -454 89
-660 124 -353 386 -620 713 -729 156 -51 269 -64 504 -58 271 7 367 29 563
129 119 60 205 125 287 214 140 153 268 393 297 556 l6 38 -230 0 -230 0 -12
-52 c-50 -213 -278 -418 -527 -474 -96 -21 -335 -15 -433 11 -258 69 -422 241
-495 517 -23 88 -45 246 -45 323 l0 35 1005 0 1005 0 0 28 c-1 78 -22 340 -36
427 -53 346 -176 631 -358 832 -149 164 -372 272 -626 303 -79 9 -241 11 -320
3z m336 -438 c285 -83 454 -305 509 -670 8 -55 15 -103 15 -107 0 -5 -345 -8
-766 -8 l-766 0 6 68 c24 235 151 469 326 597 55 40 166 96 238 120 108 35
319 35 438 0z"/>
<path d="M42485 2898 c-356 -39 -662 -220 -853 -505 -153 -228 -241 -518 -261
-864 -31 -523 102 -927 398 -1212 170 -163 353 -253 599 -293 118 -19 410 -14
512 10 346 80 605 307 735 645 36 93 79 250 91 334 l6 47 -222 -2 -223 -3 -24
-90 c-74 -282 -250 -480 -479 -539 -89 -23 -258 -21 -363 4 -117 28 -193 71
-282 160 -166 164 -244 406 -256 790 -13 424 75 726 268 919 131 131 252 181
456 189 221 7 368 -41 488 -163 87 -89 161 -240 181 -370 l6 -45 224 0 c207 0
224 1 224 18 0 33 -29 183 -50 257 -46 163 -111 284 -223 416 -202 238 -540
343 -952 297z"/>
<path d="M46675 2904 c-16 -2 -66 -9 -109 -15 -324 -44 -626 -234 -803 -506
-159 -244 -242 -533 -259 -908 -26 -559 177 -1032 551 -1281 215 -142 421
-191 765 -181 222 7 296 19 445 78 250 97 436 265 576 518 55 98 119 267 119
314 l0 27 -229 0 -229 0 -6 -45 c-18 -116 -150 -291 -282 -375 -151 -95 -271
-125 -476 -117 -159 5 -225 20 -336 72 -244 115 -383 360 -399 703 l-6 122
1003 0 1003 0 -6 143 c-37 811 -353 1312 -902 1429 -87 18 -350 32 -420 22z
m355 -450 c219 -72 358 -220 434 -462 27 -86 56 -233 56 -283 l0 -29 -760 0
-760 0 0 53 c1 154 81 353 202 498 115 138 312 242 488 258 106 10 249 -5 340
-35z"/>
<path d="M53910 2903 c-555 -54 -936 -384 -1090 -943 -44 -162 -62 -290 -67
-495 -10 -349 33 -578 152 -815 162 -321 426 -533 765 -612 127 -29 395 -36
531 -13 278 46 490 173 656 395 105 140 203 393 229 588 l7 52 -223 -2 -222
-3 -18 -70 c-77 -299 -250 -498 -486 -559 -80 -21 -242 -21 -342 0 -192 39
-339 157 -431 345 -92 190 -126 376 -125 689 0 231 15 347 65 494 93 279 264
457 495 516 55 14 110 20 194 20 244 0 412 -79 523 -248 56 -83 73 -123 102
-237 l23 -90 221 -3 221 -2 0 23 c0 55 -33 209 -66 307 -110 329 -343 554
-658 635 -119 30 -315 42 -456 28z"/>
<path d="M56493 2899 c-516 -60 -901 -433 -1043 -1009 -40 -164 -54 -312 -47
-498 15 -420 155 -778 405 -1035 168 -172 362 -275 610 -324 105 -20 371 -23
478 -5 172 29 344 97 487 193 97 66 226 201 303 318 316 484 350 1160 84 1696
-242 488 -708 730 -1277 664z m337 -403 c146 -26 247 -82 362 -197 120 -122
197 -283 246 -519 22 -108 26 -151 26 -315 1 -159 -3 -208 -22 -302 -30 -148
-56 -231 -103 -328 -153 -315 -441 -465 -793 -415 -248 36 -450 201 -555 453
-162 391 -146 900 40 1258 77 148 238 291 382 338 124 41 281 51 417 27z"/>
<path d="M62265 2903 c-442 -40 -785 -271 -979 -660 -104 -209 -158 -431 -175
-714 -31 -524 102 -927 398 -1212 228 -218 474 -307 851 -307 267 0 400 27
596 121 228 109 384 270 517 534 49 98 87 210 87 256 l0 29 -227 -2 -226 -3
-12 -52 c-46 -205 -280 -415 -522 -469 -106 -23 -347 -15 -453 16 -232 67
-395 232 -470 475 -27 88 -50 239 -50 328 l0 67 1002 0 1001 0 -6 163 c-23
591 -224 1050 -556 1268 -201 132 -476 189 -776 162z m298 -429 c111 -24 246
-94 315 -162 68 -68 125 -151 158 -233 37 -92 73 -235 80 -321 l7 -78 -762 0
-761 0 0 39 c0 64 26 182 60 269 91 238 282 413 525 483 80 23 279 25 378 3z"/>
<path d="M65195 2904 c-16 -2 -65 -9 -107 -15 -382 -51 -707 -288 -882 -644
-124 -252 -180 -520 -179 -865 1 -408 101 -718 316 -974 138 -165 305 -277
505 -340 129 -40 249 -56 432 -56 268 0 408 29 605 125 220 108 378 272 505
525 48 95 90 217 90 259 l0 31 -226 -2 -227 -3 -13 -52 c-22 -85 -70 -168
-142 -245 -83 -88 -184 -156 -299 -199 -88 -33 -89 -33 -268 -34 -159 0 -189
3 -260 23 -320 93 -500 354 -522 755 l-6 117 1003 0 1003 0 -6 158 c-18 410
-110 739 -281 996 -68 102 -209 239 -304 295 -163 97 -323 139 -552 145 -85 3
-168 3 -185 0z m301 -434 c216 -55 349 -165 445 -365 45 -94 85 -242 95 -349
l7 -76 -763 0 -763 0 6 78 c11 148 84 326 185 454 87 112 247 216 394 259 92
26 289 26 394 -1z"/>
<path d="M71208 2899 c-218 -32 -338 -100 -557 -317 -62 -62 -114 -111 -115
-110 -1 2 -27 42 -59 90 -113 170 -258 272 -447 318 -106 25 -305 27 -415 5
-241 -50 -444 -183 -590 -388 -22 -31 -43 -56 -47 -57 -4 0 -9 87 -10 193 l-3
192 -215 0 -215 0 0 -1370 0 -1370 230 0 230 0 5 870 5 870 27 97 c43 155 105
267 207 369 147 146 299 205 509 198 98 -4 114 -7 175 -37 95 -47 154 -127
203 -272 18 -52 19 -114 22 -1077 l3 -1023 229 0 230 0 0 863 c0 515 4 890 10
931 25 170 99 317 224 442 128 128 239 174 421 174 305 0 457 -152 495 -495 6
-53 10 -460 10 -1003 l0 -912 228 2 227 3 0 1030 c0 1088 0 1090 -47 1235 -80
251 -263 435 -508 510 -153 48 -312 61 -462 39z"/>
<path d="M73835 2903 c-97 -8 -247 -37 -335 -65 -377 -120 -567 -360 -605
-765 l-7 -73 214 0 213 0 18 87 c56 270 233 412 547 438 165 14 394 -24 505
-83 75 -40 149 -120 175 -189 48 -125 35 -331 -27 -411 -51 -67 -85 -75 -578
-137 -247 -30 -487 -64 -533 -75 -183 -44 -317 -116 -443 -240 -73 -72 -93
-100 -133 -180 -55 -113 -73 -179 -86 -316 -23 -249 41 -458 192 -619 171
-183 378 -265 670 -265 238 0 384 30 553 115 123 61 267 164 366 261 l65 65
12 -74 c7 -41 28 -105 46 -143 59 -123 141 -173 318 -195 107 -13 175 -7 284
24 l79 23 3 168 2 167 -47 -8 c-90 -15 -169 -10 -200 13 -61 45 -58 -4 -63
979 -5 839 -7 904 -24 955 -53 158 -153 286 -292 373 -61 38 -220 103 -309
126 -158 42 -396 60 -580 44z m745 -1676 c0 -280 -6 -324 -63 -431 -19 -38
-64 -93 -117 -146 -69 -69 -104 -95 -185 -137 -178 -91 -359 -132 -538 -120
-266 18 -400 133 -438 380 -23 145 5 258 86 346 104 111 239 156 672 221 290
43 450 78 523 115 25 13 48 23 53 24 4 1 7 -113 7 -252z"/>
<path d="M76766 2900 c-552 -69 -921 -414 -1065 -995 -41 -165 -55 -300 -54
-520 0 -169 4 -233 22 -329 89 -493 378 -854 792 -989 134 -44 272 -60 464
-54 194 6 315 31 444 92 339 161 534 451 615 918 l7 37 -224 0 -223 0 -17 -71
c-66 -275 -229 -476 -445 -551 -59 -20 -85 -23 -222 -23 -142 1 -161 3 -233
28 -104 36 -168 79 -249 165 -161 172 -238 446 -238 850 0 279 33 449 120 627
79 163 186 276 325 344 94 45 172 61 310 61 213 0 332 -44 455 -169 89 -89
138 -180 172 -320 l22 -91 223 0 223 0 -6 43 c-44 318 -140 526 -328 704 -122
117 -262 189 -436 228 -88 19 -352 28 -454 15z"/>
<path d="M83660 2899 c-88 -15 -242 -72 -323 -118 -104 -60 -220 -162 -297
-262 l-65 -84 -3 198 -2 197 -220 0 -220 0 2 -1372 3 -1373 230 0 230 0 6 865
c6 935 4 903 61 1061 41 113 96 199 177 279 144 141 261 190 466 197 341 12
507 -108 577 -418 21 -92 22 -116 25 -1041 l4 -948 229 0 230 0 0 998 c0 1092
-1 1111 -59 1278 -96 279 -311 461 -621 524 -120 25 -343 35 -430 19z"/>
<path d="M86495 2903 c-199 -23 -313 -52 -440 -112 -391 -183 -638 -559 -709
-1081 -66 -483 10 -897 223 -1208 165 -241 375 -388 656 -459 84 -21 132 -26
292 -30 290 -8 446 18 637 106 183 85 326 208 441 380 101 152 185 347 185
430 0 21 -1 21 -226 19 l-227 -3 -16 -60 c-25 -89 -68 -161 -145 -243 -80 -85
-180 -150 -297 -194 -83 -32 -86 -32 -264 -33 -205 0 -279 15 -410 82 -100 52
-218 173 -267 273 -68 139 -108 310 -108 461 l0 79 1002 0 1001 0 -6 153 c-23
526 -172 932 -433 1177 -160 150 -345 233 -584 260 -81 9 -240 11 -305 3z
m338 -443 c182 -55 317 -169 400 -336 50 -99 107 -319 107 -410 l0 -34 -760 0
-760 0 0 53 c0 138 90 364 194 489 124 148 315 251 496 267 96 9 242 -5 323
-29z"/>
<path d="M8160 1455 l0 -1375 230 0 230 0 0 1375 0 1375 -230 0 -230 0 0
-1375z"/>
<path d="M81380 1455 l0 -1375 230 0 230 0 0 1375 0 1375 -230 0 -230 0 0
-1375z"/>
</g>
</svg>
