<?xml version="1.0" standalone="no"?>
<!DOCTYPE svg PUBLIC "-//W3C//DTD SVG 20010904//EN"
 "http://www.w3.org/TR/2001/REC-SVG-20010904/DTD/svg10.dtd">
<svg version="1.0" xmlns="http://www.w3.org/2000/svg"
 width="1367.000000pt" height="394.000000pt" viewBox="0 0 1367.000000 394.000000"
 preserveAspectRatio="xMidYMid meet">
<metadata>
Created by potrace 1.16, written by Peter Selinger 2001-2019
</metadata>
<g transform="translate(0.000000,394.000000) scale(0.100000,-0.100000)"
fill="#000000" stroke="none">
<path d="M453 3921 c-222 -55 -367 -205 -425 -437 -30 -124 -30 -343 1 -459
57 -215 177 -379 471 -646 265 -240 336 -345 360 -535 16 -126 -12 -246 -68
-297 -52 -47 -175 -61 -247 -28 -94 42 -125 121 -125 313 l0 128 -211 0 -211
0 5 -182 c3 -130 9 -201 21 -243 82 -292 284 -435 616 -436 229 -1 384 54 499
176 122 130 172 282 172 521 1 357 -100 548 -468 884 -279 256 -356 360 -383
522 -24 141 18 276 97 313 85 41 203 27 259 -29 46 -46 64 -117 64 -248 l0
-108 215 0 215 0 0 78 c0 182 -33 343 -93 456 -68 128 -207 228 -362 261 -99
21 -310 19 -402 -4z"/>
<path d="M1490 2520 l0 -1390 195 0 195 0 2 1038 3 1037 144 -940 c79 -517
150 -984 158 -1037 l16 -98 187 0 187 0 16 97 c8 54 79 521 158 1038 l144 940
3 -1037 2 -1038 210 0 210 0 0 1390 0 1390 -318 0 -318 0 -12 -87 c-6 -49 -69
-493 -139 -988 l-127 -900 -27 190 c-15 105 -78 549 -140 988 l-113 797 -318
0 -318 0 0 -1390z"/>
<path d="M3910 3901 c0 -5 -101 -623 -225 -1374 -124 -751 -225 -1372 -225
-1381 0 -15 21 -16 207 -14 l207 3 17 110 c9 61 26 181 39 268 l23 157 247 0
246 0 39 -270 38 -270 224 0 c187 0 223 2 223 14 0 8 -101 629 -225 1380 -124
750 -225 1369 -225 1375 0 8 -94 11 -305 11 -178 0 -305 -4 -305 -9z m380
-1146 c50 -346 93 -645 96 -662 l6 -33 -192 0 -192 0 4 33 c18 148 184 1305
185 1299 2 -4 43 -290 93 -637z"/>
<path d="M5110 2521 l0 -1391 225 0 225 0 0 596 0 597 118 -5 c165 -7 222 -35
266 -128 19 -43 21 -68 27 -480 6 -356 10 -448 24 -507 l17 -73 230 0 230 0
-6 23 c-4 12 -14 47 -22 77 -13 45 -18 140 -24 505 -6 374 -10 460 -24 510
-39 139 -110 234 -208 280 l-50 23 43 22 c98 51 176 158 215 300 27 94 27 521
1 624 -42 165 -127 276 -259 340 -129 61 -177 67 -625 73 l-403 6 0 -1392z
m761 951 c79 -48 99 -121 99 -354 0 -193 -10 -251 -51 -308 -46 -63 -99 -83
-241 -88 l-118 -4 0 392 0 392 138 -4 c122 -3 141 -6 173 -26z"/>
<path d="M6530 3705 l0 -205 230 0 230 0 0 -1185 0 -1185 225 0 225 0 0 1185
0 1185 228 2 227 3 0 200 0 200 -682 3 -683 2 0 -205z"/>
<path d="M8170 3509 c0 -235 -5 -423 -11 -449 -5 -25 -41 -110 -78 -190 -79
-166 -91 -212 -91 -353 0 -131 16 -192 90 -342 91 -183 90 -176 90 -643 l0
-404 313 5 c244 3 324 8 366 20 170 50 303 172 363 333 20 53 22 78 23 259 0
239 -6 269 -85 426 -81 161 -94 209 -94 349 1 95 6 137 32 240 35 135 38 185
18 243 -13 36 -13 38 21 75 20 20 51 70 70 109 109 227 -7 543 -240 657 -110
54 -139 58 -474 63 l-313 5 0 -403z m605 22 c104 -47 133 -161 63 -246 -44
-53 -80 -65 -198 -65 l-100 0 0 165 0 165 98 0 c73 0 107 -5 137 -19z m-82
-691 c38 -18 43 -52 22 -129 -10 -37 -20 -109 -22 -161 -7 -134 13 -216 91
-380 36 -74 70 -153 76 -175 17 -62 25 -334 11 -378 -31 -93 -92 -126 -232
-127 l-96 0 -6 233 c-7 271 -11 292 -96 463 -78 156 -95 226 -88 369 5 112 21
175 67 264 l22 43 111 -4 c62 -3 124 -11 140 -18z"/>
<path d="M9677 3499 c-2 -290 -7 -426 -16 -454 -7 -22 -41 -101 -77 -175 -71
-149 -94 -234 -94 -350 0 -118 23 -202 90 -336 96 -191 93 -169 97 -642 l4
-412 180 0 179 0 0 384 c0 466 -3 489 -89 657 -82 160 -95 209 -95 349 0 121
12 179 59 286 l24 54 106 0 c181 0 208 -23 174 -152 -16 -61 -22 -112 -22
-193 0 -132 14 -188 85 -329 98 -195 92 -155 96 -634 l3 -422 180 0 179 0 0
403 c0 468 0 468 -90 647 -76 151 -91 207 -91 340 0 83 7 131 31 228 32 132
38 222 16 262 -13 23 -11 27 26 70 23 25 55 74 72 110 25 54 31 80 34 156 5
112 -9 184 -55 276 -62 123 -177 218 -323 263 -46 15 -109 19 -367 22 l-312 5
-4 -413z m607 31 c85 -41 119 -147 74 -225 -13 -22 -41 -50 -63 -62 -35 -20
-55 -23 -147 -23 l-108 0 0 165 0 165 102 0 c81 0 110 -4 142 -20z"/>
<path d="M11117 3903 c-4 -3 -7 -184 -7 -402 0 -228 -5 -415 -11 -441 -5 -25
-39 -106 -74 -180 -80 -167 -95 -224 -95 -360 0 -135 15 -190 94 -353 36 -73
69 -156 75 -185 7 -32 11 -208 11 -452 l0 -400 535 0 535 0 0 180 0 180 -349
0 -348 0 -6 233 c-6 272 -12 297 -98 469 -69 138 -89 210 -89 328 0 108 20
201 59 279 l31 61 175 0 175 0 30 60 c36 71 60 165 60 238 l0 52 -170 0 -170
0 0 170 0 170 350 0 350 0 0 180 0 180 -528 0 c-291 0 -532 -3 -535 -7z"/>
<path d="M12487 3903 c-4 -3 -7 -185 -7 -403 0 -459 1 -453 -90 -635 -74 -148
-90 -210 -90 -342 0 -141 12 -187 91 -353 37 -80 73 -165 78 -190 6 -26 11
-214 11 -447 l0 -403 178 0 177 0 90 175 c76 149 92 173 102 159 7 -9 48 -88
93 -175 l81 -159 175 0 174 0 0 388 c0 459 -2 468 -94 662 -82 171 -90 200
-90 340 0 140 13 188 94 349 87 173 90 195 90 656 l0 385 -179 0 -180 0 -4
-412 c-2 -290 -7 -425 -16 -453 -7 -22 -41 -101 -77 -175 -70 -147 -94 -234
-94 -345 0 -129 16 -190 90 -345 38 -80 72 -158 76 -175 3 -16 8 -39 11 -50 3
-11 -13 7 -35 40 -22 33 -62 81 -89 106 -46 44 -202 149 -221 149 -5 0 -3 -32
4 -72 15 -82 18 -227 6 -212 -5 5 -14 29 -21 54 -7 25 -37 94 -67 153 -68 133
-94 231 -94 346 0 119 21 197 91 336 94 189 91 170 96 643 l5 412 -179 0 c-99
0 -183 -3 -186 -7z"/>
<path d="M9157 574 c-33 -18 -47 -50 -47 -110 0 -42 -1 -44 -30 -44 -27 0 -30
-3 -30 -30 0 -27 3 -30 30 -30 l30 0 0 -180 0 -180 40 0 40 0 0 180 0 180 65
0 65 0 0 -180 0 -180 40 0 40 0 0 180 0 180 40 0 c38 0 40 2 40 30 0 28 -2 30
-40 30 -38 0 -40 2 -40 30 0 42 33 72 73 68 30 -3 32 -1 35 35 l3 37 -56 0
c-97 0 -135 -36 -135 -125 l0 -45 -65 0 -65 0 0 33 c0 46 13 60 57 61 43 1 53
10 53 49 0 26 -1 27 -57 27 -32 -1 -71 -8 -86 -16z"/>
<path d="M118 308 c-59 -150 -110 -281 -114 -291 -6 -16 -1 -18 42 -15 l49 3
31 85 32 85 118 0 118 0 35 -87 34 -88 49 0 c43 0 49 2 44 18 -4 10 -57 139
-120 288 l-114 269 -48 3 -49 2 -107 -272z m237 -38 c6 -19 2 -20 -80 -20 -79
0 -87 2 -82 18 3 9 22 63 43 120 l37 103 38 -100 c21 -55 40 -110 44 -121z"/>
<path d="M7820 485 l0 -95 -32 20 c-23 14 -51 20 -89 20 -69 0 -113 -27 -149
-90 -20 -37 -25 -59 -25 -125 0 -70 4 -86 28 -128 35 -59 86 -87 160 -87 40 0
61 6 81 21 l26 20 0 -20 c0 -18 6 -21 40 -21 l40 0 0 290 0 290 -40 0 -40 0 0
-95z m-35 -156 c27 -26 30 -37 33 -103 5 -86 -11 -127 -59 -151 -40 -21 -78
-12 -115 26 -24 25 -29 39 -32 97 -5 87 14 137 60 157 42 19 76 11 113 -26z"/>
<path d="M12210 290 l0 -290 40 0 40 0 0 134 c0 73 5 147 11 164 14 40 49 62
98 62 31 0 44 -6 60 -26 19 -24 21 -40 21 -180 l0 -154 40 0 40 0 0 170 c0
189 -7 218 -60 245 -43 22 -137 20 -177 -5 l-33 -20 0 95 0 95 -40 0 -40 0 0
-290z"/>
<path d="M1938 547 c-36 -21 -38 -24 -38 -74 0 -50 -2 -53 -25 -53 -21 0 -25
-5 -25 -30 0 -25 4 -30 24 -30 23 0 23 0 28 -157 6 -155 6 -157 32 -180 21
-18 39 -23 83 -23 53 0 55 1 49 23 -3 12 -6 30 -6 41 0 14 -5 17 -21 13 -46
-12 -49 -4 -49 144 l0 139 35 0 c32 0 35 2 35 30 0 28 -3 30 -35 30 l-35 0 0
75 c0 41 -3 75 -7 75 -5 -1 -25 -11 -45 -23z"/>
<path d="M3828 547 c-36 -21 -38 -24 -38 -74 0 -50 -2 -53 -25 -53 -21 0 -25
-5 -25 -30 0 -25 4 -30 25 -30 l25 0 0 -132 c0 -155 10 -200 46 -216 24 -12
106 -17 115 -7 3 2 3 21 1 40 -4 32 -7 36 -26 31 -45 -11 -51 4 -54 149 l-4
135 41 0 c39 0 41 2 41 30 0 28 -2 30 -40 30 l-39 0 -3 74 -3 74 -37 -21z"/>
<path d="M6918 548 c-36 -21 -38 -24 -38 -75 0 -50 -1 -53 -25 -53 -21 0 -25
-5 -25 -30 0 -25 4 -30 24 -30 l25 0 3 -161 c3 -155 4 -161 27 -180 16 -13 39
-19 78 -19 l54 0 -3 38 c-2 30 -7 37 -23 35 -10 -1 -27 3 -37 8 -16 9 -18 25
-18 144 l0 135 35 0 c32 0 35 2 35 30 0 28 -3 30 -35 30 l-34 0 -3 75 -3 74
-37 -21z"/>
<path d="M713 410 c-27 -16 -33 -17 -33 -5 0 11 -11 15 -40 15 l-40 0 0 -210
0 -210 40 0 40 0 0 123 c0 141 10 188 47 217 34 27 96 27 123 0 18 -18 20 -33
20 -180 l0 -160 46 0 46 0 -4 173 c-4 187 -9 206 -61 237 -44 27 -140 27 -184
0z"/>
<path d="M1287 423 c-4 -3 -7 -100 -7 -215 l0 -208 40 0 40 0 0 215 0 215 -33
0 c-19 0 -37 -3 -40 -7z"/>
<path d="M1573 409 c-28 -18 -33 -19 -33 -5 0 12 -10 16 -40 16 l-40 0 0 -210
0 -210 45 0 45 0 0 151 0 151 29 29 c36 35 95 40 132 10 23 -19 24 -25 28
-180 l3 -161 39 0 39 0 0 160 c0 230 -18 262 -143 268 -60 2 -77 -1 -104 -19z"/>
<path d="M2167 409 c-60 -32 -91 -89 -95 -175 -5 -82 8 -131 46 -176 35 -42
79 -58 157 -58 80 0 134 24 164 73 31 50 27 64 -16 69 -21 3 -40 1 -41 -4 -2
-5 -15 -22 -29 -38 -51 -62 -145 -44 -183 34 -11 23 -20 45 -20 49 0 4 73 7
161 7 l162 0 -7 57 c-14 120 -82 183 -197 183 -44 -1 -76 -7 -102 -21z m148
-53 c30 -13 65 -58 65 -86 0 -6 -40 -10 -110 -10 -70 0 -110 4 -110 10 0 27
34 73 63 85 41 18 50 18 92 1z"/>
<path d="M2673 409 c-20 -20 -23 -21 -23 -6 0 13 -9 17 -40 17 l-40 0 0 -210
0 -210 39 0 39 0 4 144 c3 129 6 148 25 173 18 24 27 28 66 26 44 -1 47 0 58
34 6 19 8 37 5 40 -3 4 -30 8 -59 10 -44 4 -55 1 -74 -18z"/>
<path d="M2983 410 c-27 -16 -33 -17 -33 -5 0 11 -11 15 -40 15 l-40 0 0 -210
0 -210 39 0 39 0 4 148 c4 156 11 181 55 201 38 18 91 13 113 -9 18 -18 20
-33 20 -180 l0 -160 46 0 47 0 -5 168 c-3 92 -10 179 -16 194 -26 65 -157 92
-229 48z"/>
<path d="M3415 418 c-33 -18 -76 -61 -93 -93 -11 -20 -16 -56 -17 -110 0 -67
4 -87 25 -125 36 -63 86 -90 173 -90 75 0 121 15 154 51 20 22 47 79 41 84 -2
1 -20 5 -40 8 -34 5 -39 3 -55 -23 -9 -17 -33 -37 -52 -46 -31 -15 -40 -15
-75 -3 -42 15 -86 66 -86 100 0 18 11 19 155 19 l155 0 0 48 c-1 81 -48 157
-113 181 -37 14 -146 14 -172 -1z m135 -63 c33 -17 60 -52 60 -77 0 -16 -11
-18 -111 -18 -110 0 -110 0 -103 23 9 30 23 47 59 69 36 22 57 23 95 3z"/>
<path d="M4308 410 c-50 -27 -77 -69 -90 -141 -21 -112 18 -216 95 -253 21
-10 60 -16 100 -16 76 0 119 24 154 85 34 60 31 75 -16 75 -32 0 -41 -4 -46
-22 -11 -34 -44 -66 -75 -73 -40 -9 -96 18 -114 54 -22 42 -21 154 1 192 22
37 75 62 113 54 31 -7 70 -47 70 -72 0 -10 6 -13 16 -9 9 3 27 6 41 6 23 0 25
3 19 32 -7 36 -38 73 -78 94 -40 21 -145 17 -190 -6z"/>
<path d="M4725 416 c-37 -17 -80 -62 -94 -99 -16 -40 -14 -172 3 -210 16 -39
61 -82 99 -96 16 -6 55 -11 88 -11 130 0 199 75 199 215 0 142 -69 215 -202
215 -35 -1 -76 -7 -93 -14z m172 -90 c76 -81 41 -240 -58 -261 -42 -9 -100 22
-121 65 -10 19 -18 57 -18 85 0 65 26 115 70 138 47 24 87 15 127 -27z"/>
<path d="M5230 423 c-8 -3 -25 -15 -37 -26 l-23 -20 0 21 c0 18 -6 22 -35 22
l-35 0 0 -210 0 -210 39 0 40 0 3 156 3 156 28 24 c35 30 94 32 128 5 23 -19
24 -25 27 -180 l3 -161 40 0 39 0 0 166 c0 188 -9 222 -65 248 -32 15 -123 20
-155 9z"/>
<path d="M5656 405 c-34 -23 -36 -23 -36 -5 0 16 -7 20 -35 20 l-35 0 0 -210
0 -210 40 0 40 0 0 128 c0 153 10 196 50 217 44 23 93 19 118 -8 21 -22 22
-33 22 -180 l0 -157 40 0 40 0 0 170 c0 189 -7 218 -60 245 -47 25 -140 20
-184 -10z"/>
<path d="M6075 406 c-99 -61 -126 -234 -53 -339 35 -49 90 -69 178 -65 65 2
82 7 112 30 30 23 76 94 66 102 -1 2 -22 6 -45 10 -32 5 -43 3 -43 -7 0 -21
-53 -66 -86 -73 -55 -11 -118 35 -130 94 l-6 32 157 0 158 0 -6 58 c-6 73 -26
113 -74 149 -31 24 -47 28 -112 31 -66 3 -81 0 -116 -22z m155 -51 c33 -17 60
-52 60 -77 0 -16 -11 -18 -111 -18 -110 0 -110 0 -104 23 9 28 44 67 70 77 30
13 53 12 85 -5z"/>
<path d="M6545 416 c-67 -30 -105 -101 -105 -199 0 -77 14 -122 49 -160 40
-44 74 -57 143 -57 99 0 155 42 183 138 6 20 3 22 -37 22 -41 0 -44 -2 -59
-39 -14 -32 -25 -42 -57 -51 -47 -15 -83 -1 -116 43 -17 23 -21 43 -21 102 0
86 19 121 79 144 33 12 41 12 70 -2 18 -8 38 -28 45 -44 10 -26 15 -28 52 -25
38 4 40 6 34 30 -10 40 -41 78 -79 96 -41 19 -139 21 -181 2z"/>
<path d="M7162 405 c-64 -40 -87 -90 -87 -196 0 -77 3 -90 28 -127 37 -57 89
-82 173 -82 40 0 79 6 101 16 36 18 76 64 87 100 6 20 2 22 -36 26 -24 2 -45
1 -46 -4 -12 -29 -58 -68 -86 -74 -58 -10 -136 48 -136 102 l0 24 156 0 156 0
-4 53 c-6 68 -32 121 -76 155 -30 23 -47 27 -111 30 -67 3 -81 0 -119 -23z
m158 -50 c33 -17 60 -52 60 -77 0 -16 -11 -18 -110 -18 -73 0 -110 4 -110 11
0 23 35 69 64 83 39 20 60 20 96 1z"/>
<path d="M8315 416 c-68 -30 -105 -101 -105 -201 0 -141 66 -215 192 -215 99
0 155 42 183 138 6 21 3 22 -39 22 -35 0 -46 -4 -46 -15 0 -54 -83 -99 -135
-74 -52 26 -70 62 -70 144 0 86 19 121 79 144 33 12 41 12 70 -2 18 -8 38 -28
45 -44 10 -26 15 -28 52 -25 38 4 40 6 34 30 -10 41 -45 83 -81 98 -42 18
-140 17 -179 0z"/>
<path d="M8708 410 c-62 -33 -98 -105 -98 -195 0 -137 73 -215 201 -215 86 0
141 27 177 88 23 41 27 57 27 127 -1 87 -13 121 -62 167 -15 15 -41 32 -56 37
-46 18 -147 13 -189 -9z m147 -54 c50 -21 75 -68 75 -141 0 -71 -23 -116 -71
-140 -94 -49 -181 53 -157 184 9 51 30 78 73 97 38 17 39 17 80 0z"/>
<path d="M9615 414 c-75 -39 -105 -96 -105 -199 0 -104 40 -177 113 -204 16
-6 58 -11 95 -11 52 0 75 5 105 23 68 41 102 117 53 117 -13 0 -31 2 -38 5 -9
4 -19 -4 -26 -20 -13 -28 -67 -65 -95 -65 -53 0 -101 43 -121 108 l-7 22 162
0 162 0 -7 57 c-14 120 -82 183 -197 183 -38 0 -76 -6 -94 -16z m140 -58 c30
-13 65 -58 65 -86 0 -6 -40 -10 -110 -10 -92 0 -110 2 -110 15 0 26 33 67 65
81 39 17 48 17 90 0z"/>
<path d="M10055 406 c-75 -46 -112 -158 -86 -262 27 -106 89 -148 211 -142 66
3 82 7 114 32 32 24 75 92 64 101 -2 1 -22 5 -45 9 -32 5 -43 3 -43 -7 0 -19
-51 -65 -81 -72 -55 -14 -139 51 -139 108 0 15 14 17 156 17 l157 0 -6 58 c-6
73 -26 113 -74 149 -31 24 -47 28 -112 31 -66 3 -81 0 -116 -22z m155 -51 c33
-17 60 -52 60 -77 0 -16 -11 -18 -111 -18 -110 0 -110 0 -104 23 9 28 44 67
70 77 30 13 53 12 85 -5z"/>
<path d="M10773 409 c-28 -18 -33 -19 -33 -5 0 12 -10 16 -35 16 l-35 0 0
-210 0 -210 39 0 40 0 3 156 3 156 28 24 c28 24 79 32 104 16 25 -16 33 -68
33 -208 l0 -144 39 0 40 0 3 156 3 156 28 24 c32 27 83 32 113 10 17 -13 19
-30 22 -180 l3 -166 40 0 39 0 0 165 c0 181 -8 220 -54 250 -20 13 -42 16 -91
13 -54 -3 -70 -9 -92 -30 l-26 -26 -22 26 c-20 23 -32 27 -91 30 -57 2 -75 -1
-101 -19z"/>
<path d="M11412 410 c-33 -15 -47 -29 -62 -62 -18 -40 -18 -43 -2 -50 40 -16
67 -9 80 21 25 57 132 65 172 14 18 -23 27 -63 15 -63 -34 0 -205 -35 -227
-46 -34 -17 -68 -69 -68 -102 0 -40 28 -90 59 -106 44 -23 147 -21 196 4 22
11 42 20 46 20 4 0 9 -9 12 -20 4 -16 14 -20 47 -20 39 0 42 2 35 22 -4 13
-11 93 -14 178 -7 172 -14 194 -66 216 -51 21 -171 18 -223 -6z m204 -242
c-11 -66 -61 -108 -131 -108 -60 0 -96 57 -59 94 16 17 20 18 124 40 36 7 67
14 69 15 2 0 1 -18 -3 -41z"/>
<path d="M11885 416 c-69 -30 -105 -103 -105 -211 1 -94 43 -168 113 -194 42
-16 134 -13 174 6 37 17 77 70 87 116 6 26 5 27 -38 27 -40 0 -44 -2 -49 -30
-7 -33 -56 -70 -93 -70 -42 0 -88 42 -102 94 -27 94 7 186 76 207 48 14 93 -5
111 -48 10 -26 15 -28 52 -25 38 4 40 6 34 31 -18 74 -73 111 -165 111 -36 -1
-79 -7 -95 -14z"/>
<path d="M12667 424 c-4 -4 -7 -101 -7 -216 l0 -209 43 3 42 3 0 210 0 210
-35 3 c-20 2 -39 0 -43 -4z"/>
<path d="M12953 409 c-28 -18 -33 -19 -33 -5 0 12 -10 16 -40 16 l-40 0 0
-210 0 -210 45 0 45 0 0 151 0 151 29 29 c36 35 95 40 132 10 23 -19 24 -25
27 -180 l4 -161 39 0 39 0 0 160 c0 230 -18 262 -143 268 -60 2 -77 -1 -104
-19z"/>
<path d="M13390 419 c-71 -28 -111 -102 -112 -203 0 -82 16 -128 58 -168 40
-37 74 -48 153 -48 77 0 119 21 158 79 30 44 29 61 -1 61 -13 0 -31 3 -39 6
-9 3 -22 -7 -35 -30 -52 -89 -181 -60 -207 47 l-7 27 156 0 156 0 0 49 c0 27
-5 62 -11 78 -13 34 -55 80 -91 99 -31 16 -140 18 -178 3z m161 -87 c15 -15
30 -37 34 -49 6 -23 6 -23 -109 -23 l-116 0 11 27 c14 38 29 54 64 70 40 18
84 8 116 -25z"/>
</g>
</svg>
